<svg width="384" height="131" viewBox="0 0 384 131" fill="none" xmlns="http://www.w3.org/2000/svg">
<path d="M310.7 1.00085C308.7 1.50085 304.7 3.00085 302 4.40085C291.2 9.90085 285.3 18.0008 284.1 28.8008L283.5 34.4008L279.3 34.7009L275 35.0008V41.9008V48.8008L279.3 49.1008L283.5 49.4008L283.8 78.1008L284 106.901H292.5H301L301.2 78.1008L301.5 49.4008H311H320.5L324.3 56.4008C326.4 60.2009 330.4 67.7008 333.2 73.0009L338.4 82.6008L325.7 106.201C318.7 119.201 313 130.101 313 130.401C313 130.701 317.5 130.801 323.1 130.701L333.1 130.401L346 106.401L358.8 82.5009L353.7 72.9008C350.9 67.7008 345.2 57.1008 341 49.4008L333.5 35.4008L317.2 35.1008L300.8 34.8008L301.5 30.6008C301.9 28.3008 302.6 25.7009 303 24.9008C304.6 21.9008 309.7 17.9008 313.5 16.6008L317.5 15.2009L317.8 7.60085C318.1 -0.999153 318.3 -0.799156 310.7 1.00085Z" fill="white"/>
<path d="M30 33.4008C27 34.3008 23 35.9008 21.1 37.0008L17.7 39.0008L16.3 36.9008C15.1 35.2008 13.8 34.9008 7.4 34.9008H0V82.9008V130.901H9H18V115.901V101.001L23.1 103.601C47 115.501 75.2 99.7008 77.7 72.9008C79.2 57.1008 68.5 40.3008 53.3 34.6008C46.6 32.0008 36.7 31.6008 30 33.4008ZM45.1 50.0008C57.2 54.1008 63.1 68.3008 57.2 79.6008C49.2 95.0008 27.2 94.3008 19.9 78.4008C12.5 62.4008 28.4 44.4008 45.1 50.0008Z" fill="white"/>
<path d="M144.3 33.4009C141.4 34.2009 137.2 35.8009 135 36.9009C131.1 38.9009 131.1 38.9009 130 36.9009C129.1 35.2009 127.9 34.9009 121.5 34.9009H114V82.9009V130.901H122.5H131V115.901C131 107.601 131.2 100.901 131.4 100.901C131.7 100.901 133.4 101.801 135.2 102.901C137 103.901 141.4 105.601 145 106.501C153.4 108.601 161.4 107.801 169.7 104.001C193.6 92.8008 198.7 61.6009 179.8 42.7009C171.2 34.1009 155.9 30.1009 144.3 33.4009ZM159.8 50.5009C175.4 57.0009 177.8 78.5009 163.9 87.2009C154 93.3008 141.3 90.9009 135.3 81.8008C132.8 78.1009 132.5 76.6009 132.5 69.9009C132.5 63.3008 132.9 61.7009 135.2 58.2009C138.4 53.4009 146.6 48.9009 152.2 48.9009C154.3 48.9009 157.7 49.6009 159.8 50.5009Z" fill="white"/>
<path d="M223.2 33.8008C215.7 36.6008 209.1 41.6008 204.7 47.9008C194.1 63.1008 196.2 84.2008 209.4 96.8008C215.7 102.701 220.5 105.301 228.4 106.901C242.9 109.901 258.1 103.401 267.1 90.3008L270.1 85.9008H259.5C250.9 85.9008 248.2 86.3008 245 87.9008C239.5 90.7008 230.8 90.6008 225.5 87.6008C221.9 85.6008 217 79.9008 217 77.8008C217 77.3008 229.7 76.9008 245.1 76.9008H273.2L272.8 68.1008C272.4 61.2008 271.8 58.2008 269.5 53.4008C265.9 45.8008 259.1 39.0008 251.5 35.4008C243.5 31.6008 231.1 30.9008 223.2 33.8008ZM245.7 52.2008C249 53.9008 254 59.7008 254 61.7008C254 62.6008 248.8 62.9008 235.5 62.9008C222.2 62.9008 217 62.6008 217 61.7008C217 59.7008 222 53.9008 225.3 52.2008C231.7 48.8008 239.2 48.8008 245.7 52.2008Z" fill="white"/>
<path d="M86 70.9008V106.901H95H104V70.9008V34.9008H95H86V70.9008Z" fill="white"/>
<path d="M358.9 45.0008L353.4 55.2008L358.1 64.2008C360.8 69.1008 363.1 73.3008 363.3 73.5008C363.7 73.9008 384 36.7008 384 35.6008C384 35.2008 379.6 34.9008 374.2 34.9008H364.3L358.9 45.0008Z" fill="white"/>
</svg>
